# xmcd
#
# Track frame offsets: 
#        150
#        9953
#        24014
#        36127
#        48691
#        60064
#        72771
#        85797
#        99939
#        112395
#        123727
#        134605
#        148701
#        160371
#        173989
#        190963
#        202814
#        214094
#        226385
#        237872
#        248961
#        262606
#        275593
#        289005
#        300085
#
# Disc length: 4224 seconds
#
# Revision: 1
# Processed by: cddbd v1.5.2PL0 Copyright (c) Steve Scherf et al.
# Submitted via: ExactAudioCopy v1.0b1
#
DISCID=56107e19
DTITLE=Various Artist - 100 Blues Classics - CD 4
DYEAR=2017
DGENRE=Blues
TTITLE0=John Lee Hooker - Dimples
TTITLE1=Otis Rush - I Can't Quit You Baby
TTITLE2=Muddy Waters - Got My Mojo Working
TTITLE3=Jimmy Reed - Big Boss Man
TTITLE4=Robert Johnson - Me And The Devil Blues
TTITLE5=Howlin' Wolf - Back Door Man
TTITLE6=Jay McShann - Confessin' The Blues
TTITLE7=Big Joe Williams - Baby, Please Don't Go
TTITLE8=Elmore James - The Sky Is Crying
TTITLE9=Slim Harpo - Rainin' In My Heart
TTITLE10=Eddie 'Blues Man' Kirkland - Don't Take My Heart
TTITLE11=Memphis Slim - Messin' Around
TTITLE12=Lem Johnson - Candy Blues
TTITLE13=Arthur Gunter - Baby Can't You See
TTITLE14=Tampa Red - Jelly Whippin' Blues
TTITLE15=Lonnie Johnson - New Falling Rain Blues
TTITLE16=Jimmy McCracklin - Later On
TTITLE17=Muddy Waters - I Can't Be Satisfied
TTITLE18=John Lee Hooker - Boogie Chillun
TTITLE19=Lightnin' Slim - Love Me Mama
TTITLE20=Robert Johnson - Sweet Home Chicago
TTITLE21=Albert King - Let's Have A Natural Ball
TTITLE22=Lonesome Sundown - Leave My Money Alone
TTITLE23=Silas Hogan - Trouble At Home Blues
TTITLE24=B.B. King - 3 O'Clock Blues
EXTD=
EXTT0=
EXTT1=
EXTT2=
EXTT3=
EXTT4=
EXTT5=
EXTT6=
EXTT7=
EXTT8=
EXTT9=
EXTT10=
EXTT11=
EXTT12=
EXTT13=
EXTT14=
EXTT15=
EXTT16=
EXTT17=
EXTT18=
EXTT19=
EXTT20=
EXTT21=
EXTT22=
EXTT23=
EXTT24=
PLAYORDER=
